# xmcd CD database file
#
# Track frame offsets:
#	150
#	13488
#	26613
#	41988
#	55488
#	69288
#	83763
#	103113
#	120063
#	134463
#	143913
#	156288
#	167388
#	178938
#	190488
#	201813
#	215538
#	227163
#
# Disc length: 3215 seconds
#
# Revision: 0
# Processed by: cddbd v1.5.2PL0 Copyright (c) Steve Scherf et al.
# Submitted via: CDex 1.51
#
DISCID=050c8d12
DTITLE=Various Artist - Bitter Sweet Love Songs
DYEAR=2005
DGENRE=Blues
TTITLE0=I Go For You - Sammy Davis Jr. and Carmen McRae
TTITLE1=Smile - Nat King Cole
TTITLE2=Smoke Gets In Your Eyes - Dinah Washington
TTITLE3=I'll Keep The Lovelight Burning In My Heart - Louis Armstrong
TTITLE4=Makin' Whoopee! - Ella Fitzgerald
TTITLE5=What A Little Moonlight Can Do - Billie Holiday
TTITLE6=He's My Guy - Sarah Washington
TTITLE7=Everything I Have Is Yours - Billie Holiday
TTITLE8=Then I'll Be Tired Of You - Lena Horne
TTITLE9=You'd Be So Nice To Come Home To - Frank Sinatra
TTITLE10=Easy Living - Peggy Lee
TTITLE11=Innamorata - Dean Martin
TTITLE12=Domani - Julius La Rosa
TTITLE13=What Is This Thing Called Love - Frank Sinatra
TTITLE14=I've Go You Under My Skin - Peggy Lee
TTITLE15=Two Different Worlds - Don Rondo
TTITLE16=You're Making Me Crazy - June Christy
TTITLE17=Autumn Leaves - Doris Day
EXTD=YEAR: 2005
EXTT0=
EXTT1=
EXTT2=
EXTT3=
EXTT4=
EXTT5=
EXTT6=
EXTT7=
EXTT8=
EXTT9=
EXTT10=
EXTT11=
EXTT12=
EXTT13=
EXTT14=
EXTT15=
EXTT16=
EXTT17=
PLAYORDER=
